<?xml version="1.0" encoding="UTF-8" standalone="no"?>
<svg width="200px" height="200px" viewBox="0 0 200 200" version="1.1" xmlns="http://www.w3.org/2000/svg" xmlns:xlink="http://www.w3.org/1999/xlink" xmlns:sketch="http://www.bohemiancoding.com/sketch/ns">
    <!-- Generator: Sketch 3.4.2 (15857) - http://www.bohemiancoding.com/sketch -->
    <title>rich-text</title>
    <defs></defs>
    <g id="Page-2" stroke="none" stroke-width="1" fill="none" fill-rule="evenodd" sketch:type="MSPage">
        <g id="detail" sketch:type="MSLayerGroup" fill="#6bbd6e">
            <path d="M0,0 L200,0 L200,200 L0,200 L0,0 Z M147.732843,37.5 L46.0171569,37.5 C39.8897059,37.5 34.375,43.0147059 34.375,49.1421569 L34.375,150.857843 C34.375,156.985294 39.8897059,162.5 46.0171569,162.5 L147.732843,162.5 C153.860294,162.5 159.375,156.985294 159.375,150.857843 L159.375,49.1421569 C159.375,43.0147059 153.860294,37.5 147.732843,37.5 L147.732843,37.5 Z M57.0465686,66.2990196 C57.0465686,64.4607843 58.2720588,63.2352941 60.1102941,63.2352941 L88.2965686,63.2352941 C90.1348039,63.2352941 91.3602941,64.4607843 91.3602941,66.2990196 L91.3602941,94.4852941 C91.3602941,96.3235294 90.1348039,96.9362745 88.2965686,96.9362745 L60.1102941,96.9362745 C58.2720588,96.9362745 57.0465686,96.3235294 57.0465686,94.4852941 L57.0465686,66.2990196 L57.0465686,66.2990196 Z M125.061275,139.828431 C125.061275,141.053922 123.835784,142.279412 122.610294,142.279412 L60.1102941,142.279412 C58.2720588,142.279412 57.0465686,141.053922 57.0465686,139.828431 L57.0465686,133.70098 C57.0465686,132.47549 58.2720588,131.25 60.1102941,131.25 L122.610294,131.25 C123.835784,131.25 125.061275,132.47549 125.061275,133.70098 L125.061275,139.828431 L125.061275,139.828431 Z M136.703431,117.156863 C136.703431,118.382353 135.477941,119.607843 133.639706,119.607843 L60.1102941,119.607843 C58.2720588,119.607843 57.0465686,118.382353 57.0465686,117.156863 L57.0465686,111.029412 C57.0465686,109.803922 58.2720588,108.578431 60.1102941,108.578431 L133.639706,108.578431 C135.477941,108.578431 136.703431,109.803922 136.703431,111.029412 L136.703431,117.156863 L136.703431,117.156863 Z M136.703431,94.4852941 C136.703431,96.3235294 135.477941,96.9362745 133.639706,96.9362745 L105.453431,96.9362745 C103.615196,96.9362745 102.389706,96.3235294 102.389706,94.4852941 L102.389706,88.9705882 C102.389706,87.1323529 103.615196,85.9068627 105.453431,85.9068627 L133.639706,85.9068627 C135.477941,85.9068627 136.703431,87.1323529 136.703431,88.9705882 L136.703431,94.4852941 L136.703431,94.4852941 Z M136.703431,71.8137255 C136.703431,73.6519608 135.477941,74.2647059 133.639706,74.2647059 L105.453431,74.2647059 C103.615196,74.2647059 102.389706,73.6519608 102.389706,71.8137255 L102.389706,66.2990196 C102.389706,64.4607843 103.615196,63.2352941 105.453431,63.2352941 L133.639706,63.2352941 C135.477941,63.2352941 136.703431,64.4607843 136.703431,66.2990196 L136.703431,71.8137255 L136.703431,71.8137255 Z" id="Shape" sketch:type="MSShapeGroup"></path>
        </g>
    </g>
</svg>
